<svg width="1440" height="1040" viewBox="0 0 1440 1040" fill="none" xmlns="http://www.w3.org/2000/svg">
<g clip-path="url(#clip0_30262_189)">
<rect width="1440" height="1040" fill="#0F172B"/>
<line x1="715.145" y1="52.5459" x2="715.145" y2="875.907" stroke="#ECF15E" stroke-opacity="0.12"/>
<line y1="-0.5" x2="879.465" y2="-0.5" transform="matrix(0.41337 0.910563 -0.885761 0.464142 776.842 52.5469)" stroke="#ECF15E" stroke-opacity="0.12"/>
<line y1="-0.5" x2="879.465" y2="-0.5" transform="matrix(0.41337 -0.910563 -0.885761 -0.464142 311.941 800.808)" stroke="#ECF15E" stroke-opacity="0.12"/>
<line y1="-0.5" x2="494.282" y2="-0.5" transform="matrix(0.809738 0.586792 -0.531715 0.846923 904.851 52.5469)" stroke="#ECF15E" stroke-opacity="0.12"/>
<line y1="-0.5" x2="494.282" y2="-0.5" transform="matrix(0.809738 -0.586792 -0.531715 -0.846923 135.6 333.3)" stroke="#ECF15E" stroke-opacity="0.12"/>
<line y1="-0.5" x2="647.059" y2="-0.5" transform="matrix(0.681319 0.731987 -0.681319 0.731987 839.192 52.5469)" stroke="#ECF15E" stroke-opacity="0.12"/>
<line y1="-0.5" x2="647.059" y2="-0.5" transform="matrix(0.681319 -0.731987 -0.681319 -0.731987 149.023 525.026)" stroke="#ECF15E" stroke-opacity="0.12"/>
<line y1="6.33984" x2="1440" y2="6.33984" stroke="#ECF15E" stroke-opacity="0.12"/>
<line y1="16.4092" x2="1440" y2="16.4092" stroke="#ECF15E" stroke-opacity="0.12"/>
<line y1="26.8145" x2="1440" y2="26.8145" stroke="#ECF15E" stroke-opacity="0.12"/>
<line y1="40.0371" x2="1440" y2="40.0371" stroke="#ECF15E" stroke-opacity="0.12"/>
<line y1="54.6865" x2="1440" y2="54.6865" stroke="#ECF15E" stroke-opacity="0.12"/>
<line y1="71.4639" x2="1440" y2="71.4639" stroke="#ECF15E" stroke-opacity="0.12"/>
<line y1="91.6562" x2="1440" y2="91.6562" stroke="#ECF15E" stroke-opacity="0.12"/>
<line y1="114.977" x2="1440" y2="114.977" stroke="#ECF15E" stroke-opacity="0.12"/>
<line y1="142.849" x2="1440" y2="142.849" stroke="#ECF15E" stroke-opacity="0.12"/>
<line y1="176.404" x2="1440" y2="176.404" stroke="#ECF15E" stroke-opacity="0.12"/>
<line y1="218.922" x2="1440" y2="218.922" stroke="#ECF15E" stroke-opacity="0.12"/>
<line y1="271.534" x2="1440" y2="271.534" stroke="#ECF15E" stroke-opacity="0.12"/>
<line y1="345.4" x2="1440" y2="345.4" stroke="#ECF15E" stroke-opacity="0.12"/>
<line y1="455.645" x2="1440" y2="455.645" stroke="#ECF15E" stroke-opacity="0.12"/>
<rect width="1440" height="1040" fill="url(#paint0_linear_30262_189)"/>
<g filter="url(#filter0_f_30262_189)">
<ellipse cx="536" cy="107" rx="500" ry="100" fill="#ECF15E" fill-opacity="0.72"/>
</g>
</g>
<defs>
<filter id="filter0_f_30262_189" x="-564" y="-593" width="2200" height="1400" filterUnits="userSpaceOnUse" color-interpolation-filters="sRGB">
<feFlood flood-opacity="0" result="BackgroundImageFix"/>
<feBlend mode="normal" in="SourceGraphic" in2="BackgroundImageFix" result="shape"/>
<feGaussianBlur stdDeviation="300" result="effect1_foregroundBlur_30262_189"/>
</filter>
<linearGradient id="paint0_linear_30262_189" x1="720" y1="0" x2="720" y2="1040" gradientUnits="userSpaceOnUse">
<stop stop-color="#0E0F11" stop-opacity="0"/>
<stop offset="0.358581" stop-color="#0A101F"/>
</linearGradient>
<clipPath id="clip0_30262_189">
<rect width="1440" height="1040" fill="white"/>
</clipPath>
</defs>
</svg>
