<svg width="20" height="20" viewBox="0 0 20 20" fill="none" xmlns="http://www.w3.org/2000/svg">
<path opacity="0.12" d="M7.5 10.0002C7.5 11.3809 8.61929 12.5002 10 12.5002C10.6904 12.5002 11.3154 12.2204 11.7678 11.768L8.23223 8.23242C7.77982 8.68483 7.5 9.30983 7.5 10.0002Z" fill="black"/>
<path d="M8.9521 4.2436C9.29078 4.19353 9.64015 4.16667 10 4.16667C14.2542 4.16667 17.0457 7.9207 17.9836 9.40569C18.0971 9.58542 18.1538 9.67528 18.1856 9.81389C18.2094 9.91799 18.2094 10.0822 18.1856 10.1863C18.1538 10.3249 18.0966 10.4154 17.9823 10.5963C17.7324 10.9918 17.3515 11.5476 16.8467 12.1504M5.60325 5.59586C3.80152 6.81808 2.57836 8.51615 2.01724 9.4044C1.90322 9.58489 1.84621 9.67514 1.81443 9.81373C1.79056 9.91783 1.79055 10.082 1.81441 10.1861C1.84617 10.3247 1.90292 10.4146 2.01643 10.5943C2.95427 12.0793 5.74583 15.8333 10 15.8333C11.7153 15.8333 13.1929 15.223 14.407 14.3972M2.5 2.5L17.5 17.5M8.23223 8.23223C7.77982 8.68464 7.5 9.30964 7.5 10C7.5 11.3807 8.61928 12.5 10 12.5C10.6904 12.5 11.3154 12.2202 11.7678 11.7678" stroke="#0F172B" stroke-width="1.2" stroke-linecap="round" stroke-linejoin="round"/>
</svg>
